<svg width="80" height="80" viewBox="0 0 80 80" fill="none" xmlns="http://www.w3.org/2000/svg">
<path d="M55 29H51C50.9984 27.2501 50.3658 25.5724 49.2409 24.335C48.116 23.0977 46.5908 22.4017 45 22.4V18C47.6512 18.0035 50.1929 19.1635 52.0676 21.2257C53.9422 23.2878 54.9968 26.0837 55 29V29Z" fill="#ACACAC"/>
<path d="M63.8845 28.7699H59.6536C59.6491 24.9153 58.0875 21.2198 55.3114 18.4942C52.5353 15.7686 48.7714 14.2354 44.8454 14.231V10.077C49.8931 10.0825 54.7326 12.0537 58.3019 15.5581C61.8712 19.0625 63.8789 23.8139 63.8845 28.7699V28.7699ZM47.6653 46.3869L52.4039 41.7345C53.0382 41.1116 53.8447 40.6851 54.7235 40.5079C55.6023 40.3307 56.5147 40.4105 57.3477 40.7375L63.1187 43.0056C63.9693 43.3397 64.6984 43.9164 65.212 44.6613C65.7255 45.4062 66 46.285 66 47.1845V57.4884C66.0015 58.1009 65.8756 58.7071 65.6302 59.2702C65.3848 59.8332 65.0249 60.3411 64.5726 60.7628C64.1202 61.1846 63.585 61.5112 62.9997 61.7228C62.4143 61.9344 61.7911 62.0265 61.1683 61.9934C20.7164 59.5218 12.5465 25.8829 11.0297 13.0014C10.9562 12.3717 11.0194 11.7338 11.215 11.1297C11.4107 10.5256 11.7344 9.96908 12.1648 9.49665C12.5952 9.02421 13.1227 8.6466 13.7124 8.38864C14.3021 8.13069 14.9408 7.99825 15.5864 8.00002H25.8951C26.8112 7.99999 27.7063 8.26947 28.465 8.77369C29.2237 9.27792 29.811 9.99376 30.1514 10.8289L32.4593 16.4949C32.7924 17.3128 32.8737 18.2086 32.6932 19.0714C32.5127 19.9342 32.0784 20.7261 31.4439 21.3488L26.7053 26.0013C26.7053 26.0013 29.3327 44.1376 47.6653 46.3869Z" fill="#ACACAC"/>
</svg>
