<svg width="36" height="39" viewBox="0 0 36 39" fill="none" xmlns="http://www.w3.org/2000/svg">
<path d="M18.0347 2.9699C20.6502 2.96991 23.1585 4.07677 25.0079 6.04701C26.8573 8.01724 27.8963 10.6895 27.8963 13.4758L27.8963 26.0829C27.8963 28.8692 26.8573 31.5414 25.0079 33.5116C23.1585 35.4819 20.6502 36.5887 18.0347 36.5887C15.4193 36.5887 12.9109 35.4819 11.0615 33.5116C9.21211 31.5414 8.17312 28.8692 8.17312 26.0829L8.17312 13.4758C8.17312 12.0961 8.4282 10.73 8.92379 9.45536C9.41938 8.18073 10.1458 7.02257 11.0615 6.04701C11.9773 5.07145 13.0644 4.29759 14.2609 3.76962C15.4573 3.24165 16.7397 2.9699 18.0347 2.9699ZM18.0347 34.4876C20.1271 34.4876 22.1337 33.6021 23.6133 32.0259C25.0928 30.4497 25.924 28.3119 25.924 26.0829L25.924 13.4758C25.924 11.2467 25.0928 9.10895 23.6133 7.53277C22.1338 5.95658 20.1271 5.07108 18.0347 5.07108C15.9424 5.07108 13.9357 5.95658 12.4562 7.53276C10.9766 9.10895 10.1454 11.2467 10.1454 13.4758L10.1454 26.0829C10.1454 28.3119 10.9766 30.4497 12.4562 32.0259C13.9357 33.6021 15.9424 34.4876 18.0347 34.4876Z" fill="#707070"/>
<path d="M18.0347 22.9311C18.2963 22.9311 18.5471 23.0418 18.732 23.2388C18.917 23.4358 19.0209 23.703 19.0209 23.9817L19.0209 28.184C19.0209 28.4627 18.917 28.7299 18.732 28.9269C18.5471 29.1239 18.2963 29.2346 18.0347 29.2346C17.7732 29.2346 17.5223 29.1239 17.3374 28.9269C17.1525 28.7299 17.0486 28.4627 17.0486 28.184L17.0486 23.9817C17.0486 23.703 17.1525 23.4358 17.3374 23.2388C17.5223 23.0418 17.7732 22.9311 18.0347 22.9311Z" fill="#707070"/>
</svg>
