<svg width="36" height="36" viewBox="0 0 36 36" fill="none" xmlns="http://www.w3.org/2000/svg">
<path d="M30.9375 31.5625H23.8402V21.6676H26.9965H27.436L27.4924 21.2317L28.0408 16.9883L28.1137 16.4242H27.5449H23.8402V14.2137C23.8402 13.6197 23.9288 13.2601 24.1135 13.0406C24.2819 12.8405 24.6285 12.6465 25.4426 12.6465H27.6891H27.6926H28.1926V12.1465V8.35313V7.91615L27.7595 7.85763C27.3436 7.80143 25.9885 7.68438 24.416 7.68438C22.6938 7.68438 21.1919 8.2119 20.1191 9.2724C19.0448 10.3344 18.4563 11.8761 18.4563 13.7953V16.4242H15.2895H14.7895V16.9242V21.1711V21.6711H15.2895H18.4563V31.5625H5.0625C4.71638 31.5625 4.4375 31.2836 4.4375 30.9375V5.0625C4.4375 4.71638 4.71638 4.4375 5.0625 4.4375H30.9375C31.2836 4.4375 31.5625 4.71638 31.5625 5.0625V30.9375C31.5625 31.2836 31.2836 31.5625 30.9375 31.5625Z" fill="black" fill-opacity="0.85" stroke="black"/>
</svg>
