<svg width="63" height="56" viewBox="0 0 63 56" fill="none" xmlns="http://www.w3.org/2000/svg">
<g clip-path="url(#clip0_29_195)">
<path d="M31.4997 12.5777L7.59797 33.6554C7.42079 33.8151 7.19438 33.8895 6.99969 34.0218V54.2496C6.99969 54.7138 7.18407 55.1589 7.51226 55.4871C7.84044 55.8153 8.28556 55.9996 8.74969 55.9996H54.2497C54.7138 55.9996 55.1589 55.8153 55.4871 55.4871C55.8153 55.1589 55.9997 54.7138 55.9997 54.2496V34.0262C55.8138 33.8993 55.5928 33.8271 55.4244 33.6762L31.4997 12.5777ZM41.9997 41.1246C41.9997 41.3567 41.9075 41.5792 41.7434 41.7433C41.5793 41.9074 41.3568 41.9996 41.1247 41.9996H34.9997V48.1246C34.9997 48.3567 34.9075 48.5792 34.7434 48.7433C34.5793 48.9074 34.3568 48.9996 34.1247 48.9996H28.8747C28.6426 48.9996 28.4201 48.9074 28.256 48.7433C28.0919 48.5792 27.9997 48.3567 27.9997 48.1246V41.9996H21.8747C21.6426 41.9996 21.4201 41.9074 21.256 41.7433C21.0919 41.5792 20.9997 41.3567 20.9997 41.1246V35.8746C20.9997 35.6426 21.0919 35.42 21.256 35.2559C21.4201 35.0918 21.6426 34.9996 21.8747 34.9996H27.9997V28.8746C27.9997 28.6426 28.0919 28.42 28.256 28.2559C28.4201 28.0918 28.6426 27.9996 28.8747 27.9996H34.1247C34.3568 27.9996 34.5793 28.0918 34.7434 28.2559C34.9075 28.42 34.9997 28.6426 34.9997 28.8746V34.9996H41.1247C41.3568 34.9996 41.5793 35.0918 41.7434 35.2559C41.9075 35.42 41.9997 35.6426 41.9997 35.8746V41.1246ZM62.4189 25.8427L34.4255 1.124C33.6242 0.399609 32.5826 -0.00146484 31.5024 -0.00146484C30.4223 -0.00146484 29.3806 0.399609 28.5794 1.124L0.579379 25.8427C0.40834 25.9963 0.269236 26.1821 0.170014 26.3895C0.070792 26.5968 0.0133967 26.8217 0.00110673 27.0513C-0.0111833 27.2808 0.0218728 27.5105 0.0983866 27.7273C0.1749 27.9441 0.293373 28.1437 0.447035 28.3146L2.78875 30.9199C2.94234 31.091 3.12812 31.2301 3.33548 31.3293C3.54285 31.4285 3.76772 31.4859 3.99727 31.4982C4.22682 31.5105 4.45654 31.4774 4.67331 31.4009C4.89008 31.3244 5.08966 31.2059 5.26063 31.0523L30.3425 8.9279C30.6622 8.64585 31.0739 8.49021 31.5002 8.49021C31.9266 8.49021 32.3383 8.64585 32.658 8.9279L57.7398 31.0512C57.9108 31.2048 58.1104 31.3233 58.3272 31.3998C58.5439 31.4763 58.7737 31.5094 59.0032 31.4971C59.2328 31.4848 59.4576 31.4274 59.665 31.3282C59.8724 31.229 60.0581 31.0899 60.2117 30.9188L62.5523 28.3135C62.8622 27.9681 63.0222 27.5138 62.9972 27.0505C62.9722 26.5872 62.7642 26.1527 62.4189 25.8427V25.8427Z" fill="#ACACAC"/>
</g>
<defs>
<clipPath id="clip0_29_195">
<rect width="63" height="56" fill="white"/>
</clipPath>
</defs>
</svg>
