<svg width="72" height="72" viewBox="0 0 72 72" fill="none" xmlns="http://www.w3.org/2000/svg">
<path d="M36.1339 38.4514C41.4495 38.4514 43.9144 42.4868 44.4341 48.2153C44.5567 49.5866 44.4285 51.5846 44.253 53.8999C43.6556 61.5904 42.9682 71.0404 48.0892 71.0404C52.4194 71.0404 54.6446 62.7311 55.9282 53.2609C57.168 43.8851 55.8551 39.2198 56.4997 35.0573C57.7305 27.1699 64.6166 20.0981 62.4892 10.0406C61.3114 4.46175 58.2401 1.83713 55.1959 0.734625C48.186 -1.81687 43.659 3.09938 36.1316 3.09938C28.6042 3.09938 24.0784 -1.81687 17.0651 0.734625C14.0242 1.83713 10.953 4.46175 9.77287 10.0406C7.64774 20.097 14.5305 27.1699 15.7646 35.0573C16.4092 39.2198 15.0975 43.8851 16.3372 53.2609C17.6209 62.7322 19.8461 71.0404 24.1762 71.0404C29.2939 71.0404 28.611 61.5904 28.0125 53.8999C27.837 51.5857 27.7076 49.5866 27.8302 48.2153C28.3477 42.4868 30.8475 38.4514 36.1316 38.4514H36.1339Z" fill="#41D399"/>
</svg>
