<svg width="950" height="956" viewBox="0 0 950 956" fill="none" xmlns="http://www.w3.org/2000/svg">
<g opacity="0.1">
<path d="M449.092 734.178C324.563 770.252 256.179 593.542 230.072 530.505C178.005 404.582 42.2021 316.75 52.2149 224.062C62.2277 131.375 175.335 140.637 175.335 140.637" stroke="#BDBDBD" stroke-width="6" stroke-miterlimit="10" stroke-linejoin="round"/>
<path d="M441.305 734.178C566.576 700.718 525.783 518.257 515.993 450.664C496.486 315.629 568.207 170.063 512.358 95.7494C456.509 21.4353 364.169 87.8325 364.169 87.8325" stroke="#BDBDBD" stroke-width="6" stroke-miterlimit="10" stroke-linejoin="round"/>
<path d="M755.335 354.616C817.803 354.616 868.443 303.622 868.443 240.718C868.443 177.813 817.803 126.819 755.335 126.819C692.868 126.819 642.228 177.813 642.228 240.718C642.228 303.622 692.868 354.616 755.335 354.616Z" fill="#878787"/>
<path d="M759.341 332.658C814.271 332.658 858.801 287.817 858.801 232.502C858.801 177.188 814.271 132.346 759.341 132.346C704.41 132.346 659.88 177.188 659.88 232.502C659.88 287.817 704.41 332.658 759.341 332.658Z" fill="#BDBDBD"/>
<path d="M514.658 440.133C508.057 490.473 589.865 674.353 462.962 724.693C320.854 781.157 267.824 571.21 230.146 530.505" stroke="#41D399" stroke-width="8" stroke-miterlimit="10"/>
<path d="M242.013 549.252C242.013 549.252 321.893 634.097 415.568 595.185C504.348 558.289 518.144 460.374 518.144 460.374" stroke="#41D399" stroke-width="5" stroke-miterlimit="10"/>
<path opacity="0.22" d="M748.809 160.055C709.944 169.167 685.839 208.229 694.814 247.365C696.149 253.191 698.225 258.867 700.97 264.244L706.013 274.253C691.773 292.999 680.202 300.169 676.271 321.903C686.358 331.837 698.151 339.753 711.057 345.28C711.057 345.206 711.131 345.131 711.131 345.056C711.131 345.131 711.205 345.206 711.205 345.355C732.491 354.467 756.745 357.23 781.072 351.554C783.816 350.882 786.412 350.06 789.008 349.239L786.709 328.326C786.709 328.326 789.676 301.812 790.343 300.393C792.049 297.032 798.947 295.24 802.507 293.148C811.11 287.92 818.601 280.825 824.387 272.535C830.155 264.162 834.124 254.669 836.04 244.664C837.955 234.658 837.776 224.36 835.512 214.428C826.463 175.292 787.599 150.943 748.809 160.055Z" fill="#212121"/>
<path d="M448.128 717.224C519.256 881.312 628.284 904.54 708.832 890.424C779.589 877.952 873.264 814.094 873.041 698.328C872.745 558.812 780.33 567.625 730.266 478.224C667.89 366.79 752.888 264.468 752.888 264.468" stroke="#41D399" stroke-width="8" stroke-miterlimit="10"/>
<path opacity="0.22" d="M702.676 289.563C702.676 289.563 716.768 282.319 730.266 290.086C751.627 302.335 753.704 319.812 753.704 319.812C753.704 319.812 766.609 293.97 773.507 286.949C780.33 279.854 732.195 244.676 721.292 258.195C710.389 271.713 702.676 289.563 702.676 289.563V289.563Z" fill="#212121"/>
<path d="M206.412 104.861C195.287 104.936 185.496 110.313 179.044 118.454L169.847 111.135C161.466 104.488 149.154 110.538 149.228 121.293L149.524 160.055C149.599 170.81 161.985 176.711 170.217 169.914L179.192 162.595C185.719 170.736 195.657 176.038 206.857 175.964C226.363 175.814 242.087 159.757 241.939 140.114C241.79 120.471 225.918 104.712 206.412 104.861ZM394.059 91.2681L374.404 57.9575C368.916 48.6963 355.269 49.966 351.56 59.9741L347.481 71.0278C337.765 67.3681 326.64 67.891 317.072 73.6419C313.08 76.0272 309.595 79.1816 306.815 82.9248C304.035 86.668 302.016 90.9264 300.872 95.4564C299.729 99.9863 299.484 104.699 300.151 109.324C300.818 113.95 302.384 118.398 304.76 122.413C307.128 126.432 310.261 129.942 313.978 132.741C317.695 135.54 321.924 137.574 326.423 138.726C330.921 139.877 335.601 140.124 340.194 139.452C344.788 138.781 349.205 137.203 353.192 134.811C362.834 129.06 368.619 119.351 370.028 108.969L381.45 110.538C391.982 111.957 399.547 100.529 394.059 91.2681V91.2681Z" fill="#616161"/>
<path d="M772.765 286.949C810.123 286.949 840.407 256.453 840.407 218.834C840.407 181.215 810.123 150.719 772.765 150.719C735.407 150.719 705.123 181.215 705.123 218.834C705.123 256.453 735.407 286.949 772.765 286.949Z" fill="#424242"/>
<path d="M776.177 266.41C805.178 266.41 828.688 242.736 828.688 213.532C828.688 184.327 805.178 160.653 776.177 160.653C747.176 160.653 723.665 184.327 723.665 213.532C723.665 242.736 747.176 266.41 776.177 266.41Z" fill="#D1D1D1"/>
<path d="M314.253 112.853C308.097 103.965 309.284 87.3844 319.89 79.8409C330.496 72.2975 346.517 75.5837 352.673 85.5172C359.571 96.5709 341.547 86.6375 330.941 94.1809C320.335 101.724 321.67 123.608 314.253 112.853ZM185.496 128.836C188.166 118.305 201.294 108.372 213.903 111.508C226.512 114.645 234.522 128.911 231.11 140.114C227.327 152.587 222.952 132.346 210.343 129.284C197.808 126.147 182.307 141.533 185.496 128.836V128.836Z" fill="#757575"/>
</g>
</svg>
