<svg width="272" height="218" viewBox="0 0 272 218" fill="none" xmlns="http://www.w3.org/2000/svg">
<path d="M210.8 109C214.54 109 217.6 105.934 217.6 102.188C217.6 98.4406 214.54 95.375 210.8 95.375C207.06 95.375 204 98.4406 204 102.188C204 105.934 207.06 109 210.8 109ZM136 74.9375C156.613 74.9375 173.4 58.1191 173.4 37.4688C173.4 16.8184 156.613 0 136 0C115.388 0 98.6 16.8184 98.6 37.4688C98.6 58.1191 115.388 74.9375 136 74.9375ZM25.415 154.984C29.75 161.499 37.8675 162.563 43.6475 159.157C50.5325 155.07 67.5325 145.66 88.4 138.464V177.125H183.6V138.507C204.468 145.66 221.468 155.112 228.353 159.2C234.133 162.606 242.25 161.456 246.585 155.027L254.15 143.659C257.89 138.038 257.38 128.927 249.9 124.456C244.843 121.433 237.278 117.218 228.183 112.789C216.24 132.418 185.938 120.368 190.91 97.8445C173.953 92.4797 155.168 88.5625 136 88.5625C111.775 88.5625 88.0175 94.7363 68 102.273C67.915 119.389 47.77 129.225 34.34 117.601C29.58 120.155 25.2875 122.54 22.1425 124.413C14.6625 128.884 14.1525 137.953 17.8925 143.616L25.415 154.984ZM156.4 146.469C162.053 146.469 166.6 151.025 166.6 156.688C166.6 162.35 162.053 166.906 156.4 166.906C150.748 166.906 146.2 162.35 146.2 156.688C146.2 151.025 150.748 146.469 156.4 146.469ZM115.6 105.594C121.253 105.594 125.8 110.15 125.8 115.812C125.8 121.475 121.253 126.031 115.6 126.031C109.948 126.031 105.4 121.475 105.4 115.812C105.4 110.15 109.948 105.594 115.6 105.594ZM47.6 109C51.34 109 54.4 105.934 54.4 102.188C54.4 98.4406 51.34 95.375 47.6 95.375C43.86 95.375 40.8 98.4406 40.8 102.188C40.8 105.934 43.86 109 47.6 109ZM265.2 190.75H6.8C3.06 190.75 0 193.816 0 197.562V211.188C0 214.934 3.06 218 6.8 218H265.2C268.94 218 272 214.934 272 211.188V197.562C272 193.816 268.94 190.75 265.2 190.75Z" fill="white" fill-opacity="0.15"/>
</svg>
