<svg width="33" height="32" viewBox="0 0 33 32" fill="none" xmlns="http://www.w3.org/2000/svg">
<path d="M31.339 12.3081H28.8318C28.8291 10.0239 27.9037 7.83397 26.2586 6.21878C24.6135 4.6036 22.383 3.69504 20.0565 3.69244V1.23082C23.0478 1.23408 25.9156 2.40219 28.0308 4.47888C30.1459 6.55556 31.3357 9.37122 31.339 12.3081ZM21.7276 22.7478L24.5357 19.9908C24.9115 19.6217 25.3895 19.3689 25.9102 19.2639C26.431 19.1589 26.9717 19.2062 27.4653 19.4L30.8852 20.7441C31.3892 20.9421 31.8213 21.2838 32.1256 21.7252C32.43 22.1666 32.5926 22.6874 32.5926 23.2204V29.3265C32.5935 29.6894 32.5189 30.0487 32.3735 30.3823C32.228 30.716 32.0147 31.017 31.7467 31.2669C31.4787 31.5168 31.1615 31.7104 30.8146 31.8357C30.4677 31.9611 30.0984 32.0157 29.7293 31.9961C5.75787 30.5314 0.91644 10.5973 0.0176034 2.9638C-0.0259299 2.59061 0.0115018 2.2126 0.127437 1.85464C0.243372 1.49667 0.435183 1.16686 0.690253 0.886902C0.945323 0.60694 1.25787 0.383169 1.60735 0.230308C1.95682 0.0774474 2.33529 -0.00103933 2.71787 1.03922e-05H8.8267C9.3696 -6.72342e-06 9.90005 0.159685 10.3496 0.458486C10.7992 0.757287 11.1473 1.18149 11.349 1.67637L12.7166 5.03402C12.914 5.51868 12.9622 6.04955 12.8553 6.56084C12.7483 7.07213 12.4909 7.54137 12.1149 7.91042L9.30683 10.6674C9.30683 10.6674 10.8638 21.4148 21.7276 22.7478Z" fill="#20BC7E"/>
</svg>
