<svg width="72" height="72" viewBox="0 0 72 72" fill="none" xmlns="http://www.w3.org/2000/svg">
<path d="M55.8 36C56.79 36 57.6 34.9875 57.6 33.75C57.6 32.5125 56.79 31.5 55.8 31.5C54.81 31.5 54 32.5125 54 33.75C54 34.9875 54.81 36 55.8 36ZM36 24.75C41.4562 24.75 45.9 19.1953 45.9 12.375C45.9 5.55469 41.4562 0 36 0C30.5437 0 26.1 5.55469 26.1 12.375C26.1 19.1953 30.5437 24.75 36 24.75ZM6.7275 51.1875C7.875 53.3391 10.0237 53.6906 11.5537 52.5656C13.3762 51.2156 17.8762 48.1078 23.4 45.7313V58.5H48.6V45.7453C54.1237 48.1078 58.6237 51.2297 60.4462 52.5797C61.9762 53.7047 64.125 53.325 65.2725 51.2016L67.275 47.4469C68.265 45.5906 68.13 42.5812 66.15 41.1047C64.8112 40.1062 62.8088 38.7141 60.4013 37.2516C57.24 43.7344 49.2188 39.7547 50.535 32.3156C46.0462 30.5438 41.0737 29.25 36 29.25C29.5875 29.25 23.2987 31.2891 18 33.7781C17.9775 39.4312 12.645 42.6797 9.09 38.8406C7.83 39.6844 6.69375 40.4719 5.86125 41.0906C3.88125 42.5672 3.74625 45.5625 4.73625 47.4328L6.7275 51.1875ZM41.4 48.375C42.8962 48.375 44.1 49.8797 44.1 51.75C44.1 53.6203 42.8962 55.125 41.4 55.125C39.9037 55.125 38.7 53.6203 38.7 51.75C38.7 49.8797 39.9037 48.375 41.4 48.375ZM30.6 34.875C32.0962 34.875 33.3 36.3797 33.3 38.25C33.3 40.1203 32.0962 41.625 30.6 41.625C29.1037 41.625 27.9 40.1203 27.9 38.25C27.9 36.3797 29.1037 34.875 30.6 34.875ZM12.6 36C13.59 36 14.4 34.9875 14.4 33.75C14.4 32.5125 13.59 31.5 12.6 31.5C11.61 31.5 10.8 32.5125 10.8 33.75C10.8 34.9875 11.61 36 12.6 36ZM70.2 63H1.8C0.81 63 0 64.0125 0 65.25V69.75C0 70.9875 0.81 72 1.8 72H70.2C71.19 72 72 70.9875 72 69.75V65.25C72 64.0125 71.19 63 70.2 63Z" fill="#41D399"/>
</svg>
