<svg width="36" height="36" viewBox="0 0 36 36" fill="none" xmlns="http://www.w3.org/2000/svg">
<path d="M33.0926 10.4098C32.9133 9.74193 32.5617 9.13291 32.073 8.64364C31.5844 8.15438 30.9758 7.80203 30.3082 7.62188C27.8508 6.96094 18 6.96094 18 6.96094C18 6.96094 8.14922 6.96094 5.6918 7.61836C5.0239 7.79793 4.41501 8.15008 3.92627 8.63944C3.43753 9.12879 3.08615 9.73813 2.90742 10.4062C2.25 12.8672 2.25 18 2.25 18C2.25 18 2.25 23.1328 2.90742 25.5902C3.26953 26.9473 4.33828 28.016 5.6918 28.3781C8.14922 29.0391 18 29.0391 18 29.0391C18 29.0391 27.8508 29.0391 30.3082 28.3781C31.6652 28.016 32.7305 26.9473 33.0926 25.5902C33.75 23.1328 33.75 18 33.75 18C33.75 18 33.75 12.8672 33.0926 10.4098ZM14.8711 22.7109V13.2891L23.0273 17.9648L14.8711 22.7109Z" fill="black" fill-opacity="0.85"/>
</svg>
